<svg xmlns="http://www.w3.org/2000/svg" viewBox="0 0 322.19 49.75"><title>logo</title><path d="M34.36,9.94a1.14,1.14,0,0,0-.18.36,3.33,3.33,0,0,0-.11,1,6.72,6.72,0,0,0,.29,1.95V37.09a33.71,33.71,0,0,1-.72,7,17.2,17.2,0,0,1-2.48,6,12.46,12.46,0,0,1-4.83,4.17,17.29,17.29,0,0,1-7.81,1.55h-.94a16.74,16.74,0,0,1-6.66-1.12,10.59,10.59,0,0,1-4-2.84A9.37,9.37,0,0,1,5,48.14a16.78,16.78,0,0,1-.5-3.92,11.47,11.47,0,0,1,.4-3.06A8.32,8.32,0,0,1,6,38.56a6.27,6.27,0,0,1,1.83-1.8,4.54,4.54,0,0,1,2.45-.68c.87,0,1.42.23,1.66.68a3,3,0,0,1,.36,1.41,5,5,0,0,1-.65,2.63,11.6,11.6,0,0,1-1.4,1.83q-.76.79-1.41,1.59a3,3,0,0,0-.65,1.94,5.5,5.5,0,0,0,2.31,5,10.24,10.24,0,0,0,5.76,1.51,10.8,10.8,0,0,0,5.25-1.22,12,12,0,0,0,3.71-3.1,13,13,0,0,0,2.2-4.07,13.27,13.27,0,0,0,.72-4.14l-1.08.07A8.34,8.34,0,0,1,22.59,39a10.91,10.91,0,0,1-3.17-3,13.3,13.3,0,0,1-1.87-3.89,13.8,13.8,0,0,1-.61-3.89V25.71a16.89,16.89,0,0,1,.36-3.2,32.29,32.29,0,0,1,1-3.82,30.85,30.85,0,0,1,1.59-3.89,24.08,24.08,0,0,1,2-3.42,11.31,11.31,0,0,1,2.31-2.44A4.05,4.05,0,0,1,26.73,8a3.56,3.56,0,0,1,1.15.22l5,.36a2.39,2.39,0,0,1,1,.36A1.08,1.08,0,0,1,34.36,9.94Zm-6.19,8.64c.09-.38.19-.74.29-1.08a4.42,4.42,0,0,0,.14-1.15,3.16,3.16,0,0,0-.47-1.69,1.83,1.83,0,0,0-1.69-.76,3.14,3.14,0,0,0-2.59,1.3,9.4,9.4,0,0,0-1.55,3.1A21.55,21.55,0,0,0,21.54,22a30.77,30.77,0,0,0-.21,3.17c0,.62.05,1.52.14,2.7a16.34,16.34,0,0,0,.69,3.49,9.83,9.83,0,0,0,1.51,3,3.1,3.1,0,0,0,2.63,1.3c.09,0,.37,0,.82-.07a4,4,0,0,0,1.05-.22Z" transform="translate(-4.48 -6.13)"/><path d="M50.85,37.3a14.65,14.65,0,0,0-1.77,3.35,37.75,37.75,0,0,0-1.18,3.82c-.34,1.32-.62,2.64-.83,4s-.45,2.58-.69,3.78q-.14.43-1.11.57a10.52,10.52,0,0,1-1.41.15,12.26,12.26,0,0,1-2.12-.15,2,2,0,0,1-1.26-.68,3.87,3.87,0,0,1-.65-1.66,29.32,29.32,0,0,1-.36-3l.94-21.39c0-.62.33-.93,1-.93a6.62,6.62,0,0,1,1,.1,11.74,11.74,0,0,1,1.37.33,4.65,4.65,0,0,1,1.23.54.91.91,0,0,1,.5.75V41.48a2,2,0,0,0,.22-.58c.33-.86.74-1.93,1.22-3.2s1-2.48,1.58-3.64a17.21,17.21,0,0,1,1.84-3,2.67,2.67,0,0,1,2-1.22,2.88,2.88,0,0,1,2,.61,4,4,0,0,1,1,1.55,6.85,6.85,0,0,1,.44,2c0,.72.07,1.42.07,2.09,0,.48,0,1.27-.15,2.38s-.14,2.76-.14,5A14.6,14.6,0,0,0,56,46.88c.24,1,.72,1.51,1.44,1.51a1.91,1.91,0,0,0,1.44-.72A8.15,8.15,0,0,0,60,45.87a14.09,14.09,0,0,0,.9-2.3,10.93,10.93,0,0,0,.43-2.31c0-.91.41-1.36,1.08-1.36a.86.86,0,0,1,.86.43,2.15,2.15,0,0,1,.22,1v.14A16.55,16.55,0,0,1,63,44.72a13.7,13.7,0,0,1-1.37,3.38,8.58,8.58,0,0,1-2.34,2.67,5.72,5.72,0,0,1-3.53,1.08q-3.24,0-4.14-2.34a20.43,20.43,0,0,1-.9-6.95Z" transform="translate(-4.48 -6.13)"/><path d="M78.93,48.54a3.23,3.23,0,0,1-1.16,2.66,7.46,7.46,0,0,1-2.62,1.37,14,14,0,0,1-3,.54c-1,.07-1.69.11-2.12.11A18.29,18.29,0,0,1,67.59,53a16.32,16.32,0,0,1-2.88-.68A6.8,6.8,0,0,1,62.33,51a2.74,2.74,0,0,1-1-2.16A1.15,1.15,0,0,1,62,47.71a2.49,2.49,0,0,1,1.19-.33,2.58,2.58,0,0,1,1.55.58l1.58,1.22a14.36,14.36,0,0,0,1.84,1.23,4.59,4.59,0,0,0,2.3.57A4.5,4.5,0,0,0,72,50.59a1.41,1.41,0,0,0,1-1.41,2.91,2.91,0,0,0-.83-1.94A16.83,16.83,0,0,0,70,45.3c-.84-.68-1.74-1.37-2.7-2.09a25.17,25.17,0,0,1-2.7-2.34,12.26,12.26,0,0,1-2.08-2.77,6.73,6.73,0,0,1-.83-3.32,6,6,0,0,1,1.62-4.24,12,12,0,0,1,3.81-2.74,19.64,19.64,0,0,1,4.5-1.44,20.72,20.72,0,0,1,3.6-.43,6.47,6.47,0,0,1,2.45.5,1.92,1.92,0,0,1,1.23,1.95,6.63,6.63,0,0,1-.18,1.26,7.15,7.15,0,0,1-.58,1.62,4.91,4.91,0,0,1-1,1.4,2.33,2.33,0,0,1-1.66.61.9.9,0,0,1-.58-.25l-.64-.58a6.85,6.85,0,0,0-.76-.57,1.6,1.6,0,0,0-.9-.25,4,4,0,0,0-3.53,1.47,5.49,5.49,0,0,0-1,3.13,4.4,4.4,0,0,0,1.7,3q1.68,1.57,3.74,3.17c1.37,1,2.62,2.1,3.74,3.13A4.27,4.27,0,0,1,78.93,48.54Z" transform="translate(-4.48 -6.13)"/><path d="M83.53,40q.07-3.67.22-7.49c.1-2.54.19-4.9.29-7.06,0-.38-.39-.64-1.15-.79s-1.64-.29-2.6-.43a11.26,11.26,0,0,1-2.59-.68A1.62,1.62,0,0,1,76.55,22c0-.63.62-1,1.87-1.08s3.1-.15,5.55-.15c.19,0,.32-.28.39-.86s.12-1.31.15-2.2,0-1.83.07-2.84.06-2,.11-2.84a14.15,14.15,0,0,1,.25-2.2c.12-.58.27-.86.47-.86a9.13,9.13,0,0,1,1.29.14c.63.1,1.27.23,2,.4a8.81,8.81,0,0,1,1.76.61c.5.24.76.5.76.79l-.8,9.36c0,.29.26.49.76.61a10.31,10.31,0,0,0,1.94.22q1.2,0,2.52,0a14.41,14.41,0,0,1,2.52.22,5.57,5.57,0,0,1,2,.68,1.57,1.57,0,0,1,.75,1.41,1.3,1.3,0,0,1-.14.47c-.1.21-.22.32-.36.32a.7.7,0,0,1-.4-.22,2.49,2.49,0,0,0-1.33-.21c-.19,0-.72,0-1.58.07s-1.78.12-2.74.22-1.83.2-2.63.32-1.23.28-1.33.47a10,10,0,0,0-.18,1.69c-.07,1-.14,2.39-.21,4.07s-.14,3.61-.18,5.79-.08,4.48-.08,6.88a23.06,23.06,0,0,0,.15,2.66,14.4,14.4,0,0,0,.43,2.34A5.16,5.16,0,0,0,91,50a1.34,1.34,0,0,0,1.11.64,2.4,2.4,0,0,0,1.73-.79,7.65,7.65,0,0,0,1.44-2.16,20.42,20.42,0,0,0,1.15-3.09c.34-1.16.63-2.33.87-3.53a5,5,0,0,1,.5-1.55,1,1,0,0,1,.86-.47,1.35,1.35,0,0,1,.9.33c.27.21.4.7.4,1.47a3.73,3.73,0,0,1-.07.94c-.15.86-.42,2-.83,3.56a26.57,26.57,0,0,1-1.66,4.47,15.53,15.53,0,0,1-2.55,3.85,4.66,4.66,0,0,1-3.53,1.65,5.36,5.36,0,0,1-3.38-1.11,8.75,8.75,0,0,1-2.42-3.1A18.27,18.27,0,0,1,84,46.41a31.19,31.19,0,0,1-.51-5.79Z" transform="translate(-4.48 -6.13)"/><path d="M126.23,45.15a10.19,10.19,0,0,1-.72,2.38A13.47,13.47,0,0,1,124,50.16,9.31,9.31,0,0,1,122,52.28a4.36,4.36,0,0,1-2.63.86,5.14,5.14,0,0,1-3.78-1.65,7.83,7.83,0,0,1-2-4.68l-1,2.66a13.53,13.53,0,0,1-1.44,2.81,10,10,0,0,1-2,2.2,4.07,4.07,0,0,1-2.63.9,2.11,2.11,0,0,1-.65-.08,2.71,2.71,0,0,1-.46-.18,3.62,3.62,0,0,0-.58-.18,5.12,5.12,0,0,0-.9-.07A4.14,4.14,0,0,1,101,53.76a8.09,8.09,0,0,1-1.9-2.85,16.63,16.63,0,0,1-1-3.78,25.49,25.49,0,0,1-.32-3.85,67.1,67.1,0,0,1,.47-8.21,31.11,31.11,0,0,1,1.54-6.87,13.12,13.12,0,0,1,2.81-4.76,5.66,5.66,0,0,1,4.18-1.76,7.21,7.21,0,0,1,2.19.25,10.11,10.11,0,0,1,1.41.58l1.4.68a8.25,8.25,0,0,0,2.13.58A5.18,5.18,0,0,1,116,25.82a7.64,7.64,0,0,1,.79,2.56,15.63,15.63,0,0,1,.11,2.84,15,15,0,0,0,.14,2.92s.11.12.33.21l.75.33a2.28,2.28,0,0,1,.76.5,1.11,1.11,0,0,1,.32.83v.29a13.08,13.08,0,0,0-.86,3.31,34.25,34.25,0,0,0-.14,3.45c0,.68,0,1.41.1,2.2a16.24,16.24,0,0,0,.36,2.23,4.75,4.75,0,0,0,.76,1.73,1.54,1.54,0,0,0,1.3.68,1.93,1.93,0,0,0,1.54-.86,8.74,8.74,0,0,0,1.16-2,20.32,20.32,0,0,0,.79-2.27,12.38,12.38,0,0,0,.39-1.73c.1-.57.34-.86.72-.86a.91.91,0,0,1,.69.4,2.3,2.3,0,0,1,.32,1.4v.54A3,3,0,0,1,126.23,45.15ZM112.91,33.49a15.43,15.43,0,0,0-.14-1.87,9.06,9.06,0,0,0-.51-2A4.06,4.06,0,0,0,111.18,28a2.76,2.76,0,0,0-1.94-.65A3.82,3.82,0,0,0,106,29.2a15.06,15.06,0,0,0-2,4.32,25.68,25.68,0,0,0-.93,5.12c-.15,1.75-.22,3.13-.22,4.14,0,.76,0,1.69.11,2.77a23.64,23.64,0,0,0,.39,3.06,8.91,8.91,0,0,0,.83,2.45,1.59,1.59,0,0,0,1.41,1,3.66,3.66,0,0,0,3.2-1.62,11.91,11.91,0,0,0,1.69-4,36,36,0,0,0,.83-5.18c.17-1.85.32-3.54.47-5.08a2.06,2.06,0,0,1,.65-1.55c.33-.21.5-.37.5-.46Z" transform="translate(-4.48 -6.13)"/><path d="M141.21,48.54a3.23,3.23,0,0,1-1.16,2.66,7.51,7.51,0,0,1-2.63,1.37,13.78,13.78,0,0,1-2.95.54c-1,.07-1.69.11-2.12.11a18.29,18.29,0,0,1-2.48-.22,16.64,16.64,0,0,1-2.89-.68A6.85,6.85,0,0,1,124.61,51a2.74,2.74,0,0,1-1-2.16,1.15,1.15,0,0,1,.61-1.11,2.49,2.49,0,0,1,1.19-.33A2.55,2.55,0,0,1,127,48c.51.38,1,.79,1.59,1.22a15,15,0,0,0,1.83,1.23,4.65,4.65,0,0,0,2.31.57,4.5,4.5,0,0,0,1.55-.39,1.42,1.42,0,0,0,1-1.41,2.91,2.91,0,0,0-.83-1.94,16.83,16.83,0,0,0-2.09-1.94c-.84-.68-1.74-1.37-2.7-2.09a25.17,25.17,0,0,1-2.7-2.34,12.26,12.26,0,0,1-2.08-2.77,6.73,6.73,0,0,1-.83-3.32,6,6,0,0,1,1.62-4.24,12,12,0,0,1,3.81-2.74,19.64,19.64,0,0,1,4.5-1.44,20.72,20.72,0,0,1,3.6-.43,6.5,6.5,0,0,1,2.45.5,1.92,1.92,0,0,1,1.23,1.95,6.84,6.84,0,0,1-.19,1.26,7.11,7.11,0,0,1-.57,1.62,5,5,0,0,1-1,1.4,2.29,2.29,0,0,1-1.65.61.88.88,0,0,1-.58-.25l-.65-.58a6.74,6.74,0,0,0-.75-.57,1.65,1.65,0,0,0-.9-.25,4,4,0,0,0-3.53,1.47,5.49,5.49,0,0,0-1,3.13,4.42,4.42,0,0,0,1.69,3q1.69,1.57,3.75,3.17c1.37,1,2.61,2.1,3.74,3.13A4.27,4.27,0,0,1,141.21,48.54Z" transform="translate(-4.48 -6.13)"/><path d="M171.8,45.15a9.31,9.31,0,0,1-.72,2.38,13.42,13.42,0,0,1-1.47,2.63,9.35,9.35,0,0,1-2.09,2.12,4.34,4.34,0,0,1-2.63.86,5.14,5.14,0,0,1-3.78-1.65,7.83,7.83,0,0,1-2-4.68c-.29.77-.62,1.65-1,2.66a13.53,13.53,0,0,1-1.44,2.81,9.54,9.54,0,0,1-2,2.2,4,4,0,0,1-2.62.9,2.06,2.06,0,0,1-.65-.08,2.79,2.79,0,0,1-.47-.18,3.62,3.62,0,0,0-.58-.18,5,5,0,0,0-.9-.07,4.1,4.1,0,0,1-2.91-1.11,8.25,8.25,0,0,1-1.91-2.85,16.12,16.12,0,0,1-1-3.78,24.32,24.32,0,0,1-.33-3.85,69.15,69.15,0,0,1,.47-8.21,31.09,31.09,0,0,1,1.55-6.87,13,13,0,0,1,2.81-4.76,5.64,5.64,0,0,1,4.17-1.76,7.32,7.32,0,0,1,2.2.25,10.5,10.5,0,0,1,1.4.58l1.41.68a8.16,8.16,0,0,0,2.12.58,5.06,5.06,0,0,1,2.12,2.05,7.66,7.66,0,0,1,.8,2.56,15.65,15.65,0,0,1,.1,2.84,15,15,0,0,0,.15,2.92s.11.12.32.21l.76.33a2.15,2.15,0,0,1,.75.5,1.12,1.12,0,0,1,.33.83v.29a13.15,13.15,0,0,0-.87,3.31c-.09,1-.14,2.11-.14,3.45,0,.68,0,1.41.11,2.2a14.84,14.84,0,0,0,.36,2.23,4.92,4.92,0,0,0,.75,1.73,1.54,1.54,0,0,0,1.3.68,2,2,0,0,0,1.55-.86,8.71,8.71,0,0,0,1.15-2,18.48,18.48,0,0,0,.79-2.27,12.76,12.76,0,0,0,.4-1.73c.09-.57.33-.86.72-.86a.87.87,0,0,1,.68.4,2.23,2.23,0,0,1,.33,1.4v.54A3.1,3.1,0,0,1,171.8,45.15ZM158.48,33.49a13.64,13.64,0,0,0-.14-1.87,9.05,9.05,0,0,0-.5-2A4.06,4.06,0,0,0,156.76,28a2.77,2.77,0,0,0-1.95-.65,3.82,3.82,0,0,0-3.27,1.83,15.06,15.06,0,0,0-2,4.32,25.69,25.69,0,0,0-.94,5.12c-.14,1.75-.22,3.13-.22,4.14,0,.76,0,1.69.11,2.77a23.61,23.61,0,0,0,.4,3.06,8.91,8.91,0,0,0,.83,2.45,1.58,1.58,0,0,0,1.4,1,3.65,3.65,0,0,0,3.2-1.62,11.92,11.92,0,0,0,1.7-4,36,36,0,0,0,.82-5.18c.17-1.85.33-3.54.47-5.08A2.1,2.1,0,0,1,158,34.6c.34-.21.5-.37.5-.46Z" transform="translate(-4.48 -6.13)"/><path d="M180.66,37.3a14.24,14.24,0,0,0-1.76,3.35,35.39,35.39,0,0,0-1.19,3.82c-.34,1.32-.61,2.64-.83,4s-.44,2.58-.68,3.78c-.1.29-.47.48-1.12.57a10.58,10.58,0,0,1-1.4.15,12.31,12.31,0,0,1-2.13-.15,2,2,0,0,1-1.26-.68,3.87,3.87,0,0,1-.65-1.66,29.32,29.32,0,0,1-.36-3l.94-21.39c0-.62.34-.93,1-.93a6.72,6.72,0,0,1,1,.1,11.61,11.61,0,0,1,1.36.33,4.65,4.65,0,0,1,1.23.54.91.91,0,0,1,.5.75V41.48a2,2,0,0,0,.22-.58c.33-.86.74-1.93,1.22-3.2a38.79,38.79,0,0,1,1.59-3.64,16.61,16.61,0,0,1,1.83-3,2.67,2.67,0,0,1,2-1.22,2.86,2.86,0,0,1,2,.61,3.88,3.88,0,0,1,1,1.55,6.85,6.85,0,0,1,.43,2c0,.72.07,1.42.07,2.09,0,.48,0,1.27-.14,2.38s-.15,2.76-.15,5a14.6,14.6,0,0,0,.36,3.38c.24,1,.72,1.51,1.44,1.51a1.91,1.91,0,0,0,1.44-.72,8.15,8.15,0,0,0,1.19-1.8,14.09,14.09,0,0,0,.9-2.3,10.93,10.93,0,0,0,.43-2.31c.05-.91.41-1.36,1.08-1.36a.88.88,0,0,1,.87.43,2.28,2.28,0,0,1,.21,1v.14a16.55,16.55,0,0,1-.54,3.24,13.7,13.7,0,0,1-1.37,3.38,8.58,8.58,0,0,1-2.34,2.67,5.69,5.69,0,0,1-3.52,1.08q-3.24,0-4.14-2.34a20.18,20.18,0,0,1-.9-6.95Z" transform="translate(-4.48 -6.13)"/><path d="M237,18.3a10.24,10.24,0,0,1-1.62,5.07A36.69,36.69,0,0,1,231.35,29c-1.64,1.87-3.4,3.71-5.3,5.51l-5.29,5q-2.44,2.34-4.07,4.07c-1.08,1.15-1.62,2-1.62,2.59,0,.29.34.48,1,.58a12.69,12.69,0,0,0,1.44.14h11.74a23.66,23.66,0,0,1,2.48.11,2.91,2.91,0,0,1,1.59.61,2.82,2.82,0,0,1,.86,1.51,12.52,12.52,0,0,1,.25,2.88c0,.53-.12.79-.36.79a3.52,3.52,0,0,1-.61-.1,4.56,4.56,0,0,0-1.12-.11c-.67,0-1.25,0-1.72,0s-.93,0-1.34,0-.82,0-1.26,0-.93,0-1.51,0c-2.06,0-4.25.12-6.55.22s-4.49.14-6.55.14a24.92,24.92,0,0,1-2.49-.14,8.47,8.47,0,0,1-2.48-.65,5.21,5.21,0,0,1-1.91-1.4,3.67,3.67,0,0,1-.75-2.42,4.56,4.56,0,0,1,.25-1.18c.17-.56.37-1.13.61-1.73s.48-1.17.72-1.69a3.88,3.88,0,0,1,.65-1.08c.77-.77,1.56-1.5,2.37-2.2l2.38-2,3.13-2.77q1.84-1.62,3.85-3.57c1.35-1.29,2.69-2.66,4-4.1a41.58,41.58,0,0,0,3.6-4.43,26.41,26.41,0,0,0,2.55-4.5,10.6,10.6,0,0,0,1-4.25,4.35,4.35,0,0,0-1.44-3.56,5.58,5.58,0,0,0-3.67-1.19,10.5,10.5,0,0,0-5.07,1.15,8.35,8.35,0,0,0-2.85,2.63,12.38,12.38,0,0,0-1.51,3.31c-.34,1.18-.71,2.28-1.12,3.31a7.11,7.11,0,0,1-1.62,2.56,4.21,4.21,0,0,1-3.09,1,2.6,2.6,0,0,1-2.23-.87,3.67,3.67,0,0,1-.65-2.3,10.91,10.91,0,0,1,1.51-5.47,17.69,17.69,0,0,1,4-4.75,20,20,0,0,1,5.54-3.35,16.55,16.55,0,0,1,6.27-1.26,7.78,7.78,0,0,1,3.42,1.08,19.62,19.62,0,0,1,4,2.81,18,18,0,0,1,3.32,3.92A8.2,8.2,0,0,1,237,18.3Z" transform="translate(-4.48 -6.13)"/><path d="M273.1,40.58a24.6,24.6,0,0,1-1.47,4.79,17.56,17.56,0,0,1-2.48,4.17,9.23,9.23,0,0,1-3.53,2.74,12.47,12.47,0,0,1-1.8.76,6.21,6.21,0,0,1-1.88.39h-4a11.87,11.87,0,0,1-2.37-.29c-.91-.19-1.71-.38-2.38-.57-1.25-.34-2.41-.7-3.49-1.08a9.33,9.33,0,0,1-3.06-1.87A12.86,12.86,0,0,1,243.94,46a22.91,22.91,0,0,1-1.69-4.5,32.73,32.73,0,0,1-.86-4.79,43.51,43.51,0,0,1-.25-4.57q0-1.87.21-4.32a45,45,0,0,1,.76-5,41.6,41.6,0,0,1,1.41-5.11,18.2,18.2,0,0,1,2.24-4.5A11.64,11.64,0,0,1,249,9.94a8.13,8.13,0,0,1,4.44-1.22,6.74,6.74,0,0,1,1.16.14l1.51.33,1.59.36c.53.12,1,.23,1.3.32,1,.19,1.91.37,2.71.54A21.48,21.48,0,0,1,264,11a8.6,8.6,0,0,1,2.1,1.05,12.83,12.83,0,0,1,2.09,1.83,14.38,14.38,0,0,1,2.2,3.57,34.85,34.85,0,0,1,1.71,4.68,43.21,43.21,0,0,1,1.1,4.89,27,27,0,0,1,.39,4.22V36A22.89,22.89,0,0,1,273.1,40.58Zm-4.82-7.38c0-1.15-.06-2.54-.18-4.18a38.69,38.69,0,0,0-.69-4.93,30.29,30.29,0,0,0-1.33-4.68A9.19,9.19,0,0,0,264,16a6.57,6.57,0,0,0-3-1.62,15.48,15.48,0,0,0-3.39-.39,7.64,7.64,0,0,0-5.32,1.8,11.37,11.37,0,0,0-3,4.42,22.31,22.31,0,0,0-1.34,5.66,51.26,51.26,0,0,0-.33,5.54,46,46,0,0,0,.37,5.22,26,26,0,0,0,1.37,5.87,14,14,0,0,0,2.82,4.79,6.05,6.05,0,0,0,4.69,2h3a5.1,5.1,0,0,0,3-1,9.78,9.78,0,0,0,2.39-2.41,14.4,14.4,0,0,0,1.66-3.13,16.09,16.09,0,0,0,.87-3.06,31.06,31.06,0,0,0,.39-3.24C268.24,35.38,268.28,34.3,268.28,33.2Z" transform="translate(-4.48 -6.13)"/><path d="M288.51,54.44a2.51,2.51,0,0,1-1.19.65,7,7,0,0,1-2.12.29h-1.66a10.52,10.52,0,0,1-1.65-.11,4.46,4.46,0,0,1-1.19-.36.86.86,0,0,1-.54-.83V23.62q0-5.89.25-9.93a27.12,27.12,0,0,1,1-6.48,1.42,1.42,0,0,1,1.44-.79,2.26,2.26,0,0,1,1.08.39,15.73,15.73,0,0,1,1.33.94A14.12,14.12,0,0,1,286.6,8.9c.41.41.74.76,1,1a1.65,1.65,0,0,1,.28.72,4.81,4.81,0,0,1,.08.8c-.05.38-.18,1.12-.4,2.23a16.87,16.87,0,0,0-.32,3.31V44.65a53.34,53.34,0,0,0,.25,5.65A14,14,0,0,0,288.51,54.44Z" transform="translate(-4.48 -6.13)"/><path d="M326.67,20.89a11.38,11.38,0,0,1-1,5,17.09,17.09,0,0,1-2.45,3.78,21,21,0,0,1-2.81,2.73,20.33,20.33,0,0,0-2.19,2c.48.43,1.12,1.08,1.94,1.95s1.62,1.78,2.41,2.77A30,30,0,0,1,324.62,42a4.86,4.86,0,0,1,.9,2.38,6.59,6.59,0,0,1-1.58,4.43,12.39,12.39,0,0,1-3.78,3,20.39,20.39,0,0,1-4.5,1.66,17.27,17.27,0,0,1-3.75.54,10,10,0,0,1-1.58-.11l-1.41-.22-1.72-.21a22.14,22.14,0,0,0-2.56-.11c-3.41,0-5.84-.87-7.31-2.59a9.83,9.83,0,0,1-2.19-6.56A6.21,6.21,0,0,1,296,41a15.68,15.68,0,0,1,2.05-2.81,24.88,24.88,0,0,1,2.52-2.41c.89-.75,1.65-1.43,2.27-2.06a33.68,33.68,0,0,1-5.94-6.84,12.41,12.41,0,0,1-2.27-6.62,7.41,7.41,0,0,1,1.8-4.79,16.52,16.52,0,0,1,4.43-3.74,26.11,26.11,0,0,1,5.54-2.45,17.78,17.78,0,0,1,5.15-.9,13.1,13.1,0,0,1,5.29,1.19,19.76,19.76,0,0,1,4.86,3,18.43,18.43,0,0,1,3.57,4A8,8,0,0,1,326.67,20.89Zm-6.12-2.52a4.06,4.06,0,0,0-1.76-3.67,7,7,0,0,0-3.93-1.16,17.49,17.49,0,0,0-3.88.58,23.82,23.82,0,0,0-4.61,1.62,14.91,14.91,0,0,0-3.82,2.52A4.49,4.49,0,0,0,301,21.61a5.71,5.71,0,0,0,1,2.84,17.18,17.18,0,0,0,2.41,3.1A16.4,16.4,0,0,0,307.41,30a5.53,5.53,0,0,0,2.85,1,6.56,6.56,0,0,0,3.85-1.3,14.78,14.78,0,0,0,3.27-3.2,17.15,17.15,0,0,0,2.31-4.14A11.42,11.42,0,0,0,320.55,18.37ZM319.33,45.8a6.1,6.1,0,0,0-.87-3,14.07,14.07,0,0,0-2.16-2.91,11.78,11.78,0,0,0-2.84-2.24,6.06,6.06,0,0,0-2.92-.86,7.55,7.55,0,0,0-3.06.72,11.91,11.91,0,0,0-3,1.91,10.8,10.8,0,0,0-2.27,2.7,6,6,0,0,0-.9,3.09,2.74,2.74,0,0,0,.93,2.09,7.05,7.05,0,0,0,2.45,1.41,16.88,16.88,0,0,0,3.39.79,27.06,27.06,0,0,0,3.67.25c.67,0,1.44,0,2.3-.11a10.14,10.14,0,0,0,2.45-.5,5.35,5.35,0,0,0,2-1.19A2.86,2.86,0,0,0,319.33,45.8Z" transform="translate(-4.48 -6.13)"/></svg>